<?xml version="1.0" standalone="no"?>
<!DOCTYPE svg PUBLIC "-//W3C//DTD SVG 20010904//EN"
 "http://www.w3.org/TR/2001/REC-SVG-20010904/DTD/svg10.dtd">
<svg version="1.0" xmlns="http://www.w3.org/2000/svg"
 width="2560.000000pt" height="2560.000000pt" viewBox="0 0 2560.000000 2560.000000"
 preserveAspectRatio="xMidYMid meet">
<metadata>
Created by potrace 1.14, written by Peter Selinger 2001-2017
</metadata>
<g transform="translate(0.000000,2560.000000) scale(0.100000,-0.100000)"
fill="#000000" stroke="none">
<path d="M12685 18258 c-231 -44 -394 -283 -357 -522 19 -124 112 -317 201
-418 l41 -46 -82 -30 c-174 -62 -359 -88 -521 -71 -257 26 -484 118 -1037 419
-529 289 -679 343 -985 357 -354 16 -713 -87 -1007 -289 l-88 -60 -153 30
c-317 65 -627 82 -832 47 -130 -22 -307 -81 -431 -143 -110 -55 -293 -180
-406 -275 l-73 -63 -70 13 c-678 119 -1112 -17 -1615 -504 l-116 -112 -109 11
c-61 5 -182 8 -270 4 -253 -9 -434 -53 -626 -152 -221 -115 -423 -303 -654
-609 -44 -58 -77 -93 -94 -97 -14 -4 -82 -19 -151 -34 -264 -55 -515 -158
-668 -274 -213 -160 -354 -376 -481 -735 -24 -66 -46 -130 -51 -142 -5 -12
-50 -45 -102 -76 -142 -84 -252 -169 -368 -286 -201 -203 -309 -403 -340 -633
-24 -175 21 -364 159 -661 23 -49 41 -95 41 -102 0 -8 -18 -46 -39 -87 -82
-151 -139 -336 -150 -486 -15 -204 17 -372 105 -542 104 -201 299 -399 533
-540 50 -30 106 -64 124 -75 27 -18 39 -41 85 -160 202 -533 444 -796 886
-960 100 -37 324 -98 406 -110 42 -6 49 -12 97 -78 67 -92 196 -233 298 -326
213 -195 402 -307 640 -380 175 -53 266 -65 512 -66 l222 -1 98 -90 c321 -296
571 -442 875 -514 200 -47 459 -50 706 -10 l123 20 47 -39 c232 -193 614 -339
994 -380 203 -23 500 -10 734 29 l112 19 83 -55 c178 -120 390 -201 659 -253
302 -59 572 -52 789 19 101 33 283 122 568 278 109 60 245 134 303 165 322
171 597 257 819 257 151 0 331 -36 463 -92 l47 -20 -52 -63 c-109 -132 -178
-298 -185 -446 -7 -150 28 -249 125 -350 100 -105 249 -154 395 -130 287 47
462 330 377 607 -34 112 -116 265 -179 338 l-31 35 47 20 c76 34 200 70 298
87 171 30 420 -1 635 -78 105 -39 355 -163 616 -308 580 -321 751 -379 1090
-367 337 12 666 116 960 302 l90 57 120 -21 c179 -32 248 -40 430 -51 339 -22
627 31 915 166 104 49 287 167 362 234 l48 41 112 -18 c145 -23 555 -26 663
-4 250 49 490 159 701 321 43 33 136 113 205 176 l126 116 259 2 c225 2 273 5
366 24 419 88 708 287 1023 706 l84 113 88 17 c186 36 406 107 544 177 166 83
337 227 449 379 79 107 186 324 248 503 l49 139 49 27 c292 160 533 392 651
626 64 127 85 216 90 380 8 236 -31 408 -139 618 l-51 99 20 47 c101 228 125
287 147 363 38 131 49 233 36 329 -34 248 -144 468 -324 644 -133 132 -284
246 -430 326 -48 27 -49 28 -86 136 -162 476 -369 740 -716 911 -161 80 -317
132 -524 174 l-105 22 -50 70 c-199 279 -396 473 -593 583 -260 145 -491 196
-864 191 l-218 -3 -92 91 c-314 307 -539 442 -868 521 -185 44 -534 43 -810
-3 -31 -5 -42 0 -100 47 -258 208 -580 340 -930 380 -207 23 -616 -1 -833 -50
l-48 -11 -106 70 c-309 207 -677 312 -1042 297 -290 -12 -412 -58 -971 -362
-293 -160 -459 -242 -600 -298 -294 -117 -540 -140 -808 -77 -69 17 -206 64
-221 76 -2 2 20 34 48 71 57 77 131 221 155 302 22 76 21 214 -3 290 -50 161
-183 281 -350 317 -74 15 -114 16 -186 2z m173 -364 c116 -48 158 -166 111
-307 -33 -99 -107 -209 -160 -238 -40 -21 -144 116 -188 248 -46 137 -11 246
94 294 49 23 94 24 143 3z m-2649 -293 c164 -42 328 -117 676 -312 396 -221
619 -324 825 -378 171 -45 261 -55 439 -48 219 8 379 48 579 142 l94 44 80
-40 c95 -48 250 -101 368 -126 120 -26 420 -25 539 1 266 58 483 151 937 404
503 279 662 337 934 336 202 -1 342 -28 560 -106 155 -56 319 -150 416 -240
l41 -38 88 20 c243 58 667 88 869 61 316 -42 609 -175 853 -388 l72 -63 93 19
c166 34 280 45 458 45 249 -1 406 -36 605 -135 150 -74 271 -166 460 -350
l170 -166 65 8 c385 47 732 -6 979 -149 181 -105 314 -235 517 -505 59 -78
113 -147 121 -154 8 -6 38 -14 66 -18 81 -11 312 -70 412 -105 424 -149 610
-361 805 -918 l47 -134 114 -65 c273 -156 451 -334 538 -539 96 -227 76 -504
-57 -776 l-57 -117 47 -88 c122 -227 163 -484 112 -693 -63 -251 -277 -487
-605 -664 l-86 -46 -52 -148 c-137 -383 -247 -568 -423 -706 -174 -139 -454
-248 -785 -306 l-73 -13 -72 -96 c-189 -254 -351 -425 -485 -514 -96 -64 -241
-132 -345 -161 -161 -46 -290 -59 -513 -52 -110 3 -215 9 -232 12 -31 6 -40 0
-165 -123 -254 -247 -464 -386 -698 -461 -163 -53 -255 -67 -455 -66 -175 0
-229 5 -423 41 l-93 17 -52 -51 c-251 -244 -597 -391 -982 -418 -167 -12 -493
21 -722 71 l-111 25 -59 -44 c-267 -202 -596 -320 -929 -334 -300 -13 -447 40
-1049 377 -545 305 -840 401 -1180 387 -212 -9 -375 -49 -567 -139 l-107 -51
-83 41 c-323 157 -658 191 -1003 102 -212 -55 -435 -155 -820 -369 -310 -172
-525 -277 -620 -301 -203 -52 -475 -43 -747 26 -219 55 -419 146 -544 246
l-73 59 -98 -20 c-236 -48 -559 -70 -753 -51 -216 21 -413 74 -600 161 -112
53 -295 170 -373 240 l-49 42 -116 -21 c-188 -35 -314 -45 -477 -39 -211 9
-354 42 -522 123 -178 85 -364 224 -569 426 l-101 99 -189 -7 c-507 -18 -819
94 -1157 416 -87 82 -248 267 -316 361 -30 42 -37 47 -84 53 -29 4 -115 22
-192 41 -591 142 -836 381 -1056 1026 l-33 96 -86 48 c-269 149 -453 321 -548
510 -122 245 -104 551 49 845 l50 94 -55 111 c-204 408 -154 777 146 1076 103
104 265 217 399 282 45 21 47 25 74 107 69 214 165 426 252 557 54 83 182 213
261 266 158 106 353 177 632 233 69 13 134 26 146 29 12 3 58 53 106 117 374
491 600 651 998 705 129 17 406 13 543 -8 l78 -12 137 135 c211 207 347 310
527 401 268 134 567 159 978 81 l138 -26 57 54 c316 301 671 458 1028 458 172
0 442 -36 674 -89 l124 -29 85 70 c185 149 398 240 666 284 122 20 407 12 514
-15z m2651 -9378 c47 -42 115 -172 132 -254 23 -112 -20 -210 -112 -256 -57
-29 -105 -29 -161 0 -118 63 -135 195 -48 373 35 72 118 174 141 174 4 0 26
-16 48 -37z"/>
<path d="M6295 14441 c-203 -53 -306 -277 -215 -466 25 -51 106 -130 156 -151
232 -97 481 77 461 322 -9 118 -87 229 -195 276 -50 23 -157 32 -207 19z"/>
<path d="M7062 14436 c-237 -77 -306 -376 -127 -550 60 -58 137 -88 228 -88
130 0 251 86 298 211 59 156 -21 344 -176 412 -62 27 -164 34 -223 15z"/>
<path d="M3800 13145 l0 -1285 310 0 310 0 0 505 0 505 315 0 315 0 0 -505 0
-505 310 0 310 0 0 1285 0 1285 -315 0 -315 0 0 -485 0 -485 -307 2 -308 3 -3
483 -2 482 -310 0 -310 0 0 -1285z"/>
<path d="M15490 13146 l0 -1286 404 0 c447 0 560 9 765 61 194 48 343 131 462
256 214 225 323 526 336 928 7 234 -21 427 -93 627 -135 375 -368 574 -789
674 -59 14 -148 18 -577 21 l-508 4 0 -1285z m956 684 c80 -28 182 -104 225
-171 143 -219 170 -645 58 -916 -42 -99 -94 -170 -167 -225 -87 -66 -163 -88
-303 -88 l-109 0 0 710 0 710 118 0 c92 0 131 -4 178 -20z"/>
<path d="M11902 13670 c-264 -37 -498 -212 -625 -465 -49 -99 -66 -163 -77
-296 -19 -228 14 -424 101 -597 107 -213 280 -349 545 -428 74 -22 115 -27
244 -31 214 -7 381 23 553 100 l67 30 0 228 c0 126 -2 229 -4 229 -3 0 -40
-16 -83 -36 -133 -60 -218 -78 -378 -79 -133 0 -143 1 -202 28 -54 26 -123 81
-112 90 2 2 209 78 459 169 l455 164 -3 70 c-7 139 -53 308 -120 439 -26 50
-63 97 -132 166 -81 81 -109 102 -190 142 -52 25 -124 53 -160 62 -80 19 -254
27 -338 15z m198 -491 c55 -25 96 -62 121 -110 l18 -37 -57 -21 c-183 -67
-401 -139 -406 -134 -3 4 -6 34 -6 68 0 114 73 213 177 241 68 18 101 17 153
-7z"/>
<path d="M10035 13640 c-361 -56 -598 -345 -646 -789 -39 -356 78 -690 303
-866 131 -102 253 -145 419 -145 116 0 224 25 317 75 36 19 67 33 70 31 2 -2
3 -35 3 -73 0 -87 -30 -171 -77 -218 -38 -38 -137 -89 -204 -104 -130 -30
-377 3 -567 76 -11 4 -13 -41 -13 -241 l0 -246 28 -11 c177 -67 514 -105 707
-80 106 14 240 57 339 108 50 26 97 63 157 123 74 74 94 101 138 191 92 188
85 97 89 1187 l3 962 -284 0 -284 0 -7 -50 c-4 -27 -9 -50 -11 -50 -2 0 -30
18 -61 40 -32 22 -87 50 -123 61 -76 23 -209 32 -296 19z m355 -589 c106 -51
152 -180 132 -365 -13 -115 -41 -183 -96 -234 -55 -50 -102 -66 -182 -59 -157
12 -234 120 -234 326 0 203 66 322 198 357 61 16 114 9 182 -25z"/>
<path d="M13724 13620 c-77 -20 -153 -55 -221 -101 l-42 -29 -11 55 -11 55
-257 -2 -257 -3 -3 -867 -2 -868 290 0 289 0 3 568 c3 535 4 569 22 598 27 45
69 66 142 72 46 3 76 0 108 -12 54 -21 111 -81 125 -133 7 -25 11 -226 11
-570 l0 -533 275 0 275 0 0 668 c0 583 -2 675 -16 723 -44 149 -147 271 -286
338 -45 22 -110 44 -142 50 -89 16 -212 12 -292 -9z"/>
<path d="M6432 13619 c-138 -18 -230 -57 -337 -142 -166 -133 -280 -346 -316
-586 -18 -130 -7 -362 24 -483 77 -295 250 -488 502 -559 64 -19 105 -23 210
-23 114 0 140 3 211 27 44 15 108 45 143 67 34 22 63 40 65 40 2 0 6 -23 10
-50 l7 -50 267 2 267 3 0 865 0 865 -282 3 -282 2 -6 -37 c-13 -77 -12 -76
-63 -36 -112 86 -245 115 -420 92z m335 -583 c103 -49 150 -160 140 -338 -11
-219 -97 -328 -258 -328 -152 0 -242 100 -256 285 -14 185 52 339 167 389 55
24 146 20 207 -8z"/>
<path d="M8241 13619 c-189 -24 -338 -111 -463 -267 -123 -155 -187 -342 -195
-574 -9 -231 21 -398 102 -563 93 -191 244 -318 445 -372 91 -24 293 -24 374
1 66 20 168 68 205 97 29 23 33 20 40 -34 l6 -42 270 0 270 0 0 865 0 865
-282 3 -282 2 -7 -47 c-3 -27 -9 -52 -11 -56 -3 -4 -21 7 -41 24 -47 42 -124
76 -209 94 -74 16 -124 17 -222 4z m344 -585 c87 -45 135 -148 135 -289 0
-196 -55 -315 -167 -362 -18 -7 -61 -13 -97 -13 -160 0 -256 123 -256 330 0
169 59 292 165 342 54 25 164 21 220 -8z"/>
<path d="M18145 13619 c-144 -21 -250 -72 -363 -174 -240 -219 -341 -596 -262
-990 59 -298 231 -514 471 -593 204 -68 438 -45 598 58 34 22 64 40 66 40 3 0
5 -12 5 -27 0 -16 3 -38 6 -50 l6 -23 269 0 269 0 0 870 0 870 -282 -2 -283
-3 -9 -52 -9 -52 -36 29 c-114 91 -268 125 -446 99z m315 -569 c50 -14 107
-64 138 -124 26 -48 27 -58 27 -191 0 -162 -14 -217 -72 -285 -49 -57 -101
-80 -183 -80 -182 0 -274 146 -250 397 13 143 63 232 155 274 44 20 129 25
185 9z"/>
<path d="M21135 13609 c-179 -30 -359 -146 -440 -285 -78 -133 -102 -327 -57
-471 19 -62 32 -81 96 -150 114 -121 221 -177 407 -213 166 -32 235 -79 210
-143 -7 -19 -26 -35 -58 -50 -42 -19 -64 -22 -168 -21 -133 1 -214 18 -361 77
l-84 34 0 -242 0 -243 113 -31 c164 -45 274 -61 417 -61 262 0 458 68 601 210
125 123 173 242 172 425 0 123 -18 190 -74 276 -38 60 -79 96 -166 148 -92 54
-196 86 -333 103 -116 15 -184 37 -194 64 -10 26 21 82 56 100 24 13 63 19
141 22 130 5 243 -10 354 -48 l83 -27 0 222 0 222 -72 21 c-125 36 -156 43
-266 57 -116 16 -297 18 -377 4z"/>
<path d="M19307 13593 c-4 -3 -7 -116 -7 -250 l0 -243 266 0 c209 0 265 -3
261 -12 -3 -7 -123 -267 -267 -578 -144 -311 -271 -584 -281 -607 l-18 -43
669 0 670 0 0 235 0 235 -240 2 -239 3 289 628 c160 346 290 631 290 633 0 7
-1386 4 -1393 -3z"/>
<path d="M14670 12880 l0 -280 295 0 295 0 0 280 0 280 -295 0 -295 0 0 -280z"/>
<path d="M21072 11568 c3 -21 9 -23 70 -26 l68 -3 2 -177 3 -177 25 0 25 0 3
183 2 182 65 0 c58 0 65 2 65 20 0 19 -7 20 -166 20 l-165 0 3 -22z"/>
<path d="M21452 11388 l3 -203 25 0 25 0 3 165 4 165 56 -165 c53 -154 59
-165 82 -165 23 0 29 11 82 165 l56 165 4 -165 3 -165 25 0 25 0 3 203 2 203
-42 -3 -43 -3 -55 -162 c-30 -90 -57 -163 -60 -163 -3 0 -30 74 -60 165 l-54
165 -43 0 -43 0 2 -202z"/>
</g>
</svg>
