<?xml version="1.0" standalone="no"?>
<!DOCTYPE svg PUBLIC "-//W3C//DTD SVG 20010904//EN"
 "http://www.w3.org/TR/2001/REC-SVG-20010904/DTD/svg10.dtd">
<svg version="1.0" xmlns="http://www.w3.org/2000/svg"
 width="127.000000pt" height="127.000000pt" viewBox="0 0 127.000000 127.000000"
 preserveAspectRatio="xMidYMid meet">
<metadata>
Created by potrace 1.14, written by Peter Selinger 2001-2017
</metadata>
<g transform="translate(0.000000,127.000000) scale(0.100000,-0.100000)"
fill="#000000" stroke="none">
<path d="M615 880 c-8 -24 -15 -25 -58 -4 -27 13 -44 14 -93 6 -74 -13 -139
-30 -162 -41 -9 -5 -28 -14 -42 -20 -58 -27 -80 -44 -109 -80 -27 -34 -31 -47
-31 -101 0 -54 4 -67 30 -100 37 -47 151 -104 240 -121 36 -6 79 -15 95 -19
19 -4 46 -1 73 9 41 15 43 15 58 -7 19 -27 28 -28 53 -1 19 21 22 21 59 6 28
-11 49 -13 78 -7 21 5 65 14 97 20 32 6 70 18 85 26 15 8 32 14 37 14 17 1
104 69 121 95 9 14 19 50 21 80 3 46 0 59 -24 93 -15 22 -43 48 -60 57 -18 10
-33 22 -33 26 0 4 -14 10 -31 14 -17 4 -42 13 -57 21 -15 7 -47 16 -72 19 -25
3 -62 11 -82 17 -30 9 -45 8 -80 -6 -42 -17 -43 -17 -57 3 -17 27 -48 27 -56
1z m25 -48 c28 0 71 8 93 18 28 13 46 16 58 9 10 -5 33 -9 53 -9 19 0 38 -4
41 -10 3 -5 19 -10 34 -10 15 0 36 -7 47 -15 10 -8 27 -15 36 -15 9 0 33 -11
52 -24 92 -62 110 -128 55 -197 -17 -21 -36 -39 -43 -39 -7 0 -21 -9 -31 -20
-10 -11 -28 -20 -40 -20 -11 0 -26 -5 -32 -11 -11 -11 -75 -28 -123 -33 -14
-2 -37 -6 -51 -10 -18 -5 -37 -2 -57 8 -42 22 -140 23 -181 2 -20 -11 -40 -14
-54 -10 -12 4 -31 8 -42 9 -39 3 -101 17 -130 30 -16 7 -41 18 -55 24 -82 36
-127 89 -128 149 0 23 3 42 8 42 5 0 16 13 25 30 8 16 26 32 39 36 14 3 27 12
30 20 3 8 18 14 34 14 16 0 35 7 42 15 7 8 25 15 41 15 15 0 31 5 34 10 3 6
23 10 43 11 20 0 46 4 57 8 13 6 32 2 56 -10 22 -11 57 -18 89 -17z"/>
<path d="M240 670 c0 -47 3 -60 15 -60 8 0 15 9 15 20 0 11 5 20 10 20 6 0 10
-9 10 -19 0 -18 8 -19 115 -19 64 0 119 -2 122 -6 4 -3 -1 -6 -10 -6 -10 0
-17 -7 -17 -16 0 -23 53 -14 64 12 8 18 16 20 62 16 51 -4 53 -4 57 24 l4 29
2 -27 c1 -28 31 -41 31 -14 0 7 9 16 20 19 15 4 20 0 20 -14 0 -15 7 -19 33
-19 18 0 38 5 44 11 8 8 13 8 17 0 4 -6 38 -11 81 -11 55 0 74 -4 79 -15 6
-17 36 -21 36 -5 0 6 -5 10 -12 10 -9 0 -9 3 0 12 16 16 15 45 0 51 -10 4 -10
6 0 6 6 1 12 6 12 12 0 7 -32 10 -100 7 -55 -1 -100 0 -100 4 0 17 -34 38 -61
38 -26 0 -29 -3 -29 -30 0 -23 -5 -30 -19 -30 -11 0 -23 5 -26 10 -4 6 -25 11
-48 10 -70 0 -81 0 -107 1 -14 0 -32 0 -40 0 -60 -3 -153 -1 -158 3 -3 4 7 6
22 6 39 0 27 24 -13 27 -29 3 -33 0 -28 -17 3 -11 1 -22 -3 -25 -5 -3 -10 5
-12 17 -4 30 -38 37 -38 9 0 -12 -4 -21 -10 -21 -5 0 -10 9 -10 20 0 11 -7 20
-15 20 -12 0 -15 -13 -15 -60z m580 1 c0 -11 -4 -23 -10 -26 -6 -4 -10 5 -10
19 0 14 5 26 10 26 6 0 10 -9 10 -19z m-360 -21 c0 -5 -4 -10 -10 -10 -5 0
-10 5 -10 10 0 6 5 10 10 10 6 0 10 -4 10 -10z m80 0 c0 -5 -4 -10 -10 -10 -5
0 -10 5 -10 10 0 6 5 10 10 10 6 0 10 -4 10 -10z m360 0 c0 -5 -5 -10 -11 -10
-5 0 -7 5 -4 10 3 6 8 10 11 10 2 0 4 -4 4 -10z m44 -5 c-4 -8 -8 -15 -10 -15
-2 0 -4 7 -4 15 0 8 4 15 10 15 5 0 7 -7 4 -15z m56 -6 c0 -6 -4 -7 -10 -4 -5
3 -10 11 -10 16 0 6 5 7 10 4 6 -3 10 -11 10 -16z"/>
</g>
</svg>
